<?xml-stylesheet type="text/css" href="../css/style.css" ?>
<svg width="80" height="80" viewBox="0 0 40 40" xmlns="http://www.w3.org/2000/svg">
<path style="transform: translate(-78px, 5px);" d="M96.8093 10.7741C96.9873 10.8212 98.1128 11.1196 99.1441 12.8052C99.7408 13.7789 100.845 13.8626 101.29 12.6691C101.479 12.1613 101.411 11.5802 101.17 11.0934C99.4058 7.518 93.3805 8.06242 90.4228 9.37637C85.4287 11.5907 83.9211 15.2604 84.6435 18.417C84.7639 19.0713 85.01 19.7047 85.3921 20.3172C85.9889 21.3328 86.8055 22.0709 87.5855 22.5944C87.931 22.8457 88.3079 23.0865 88.7058 23.3116C91.2499 24.7511 94.6159 25.5416 98.1861 25.5416C100.128 25.5416 102.008 25.3008 103.772 24.8244C106.614 24.0601 109.315 22.0761 110.818 19.6576C111.797 18.0819 112.32 16.2969 112.331 14.5013C112.341 12.6272 111.786 10.8578 110.724 9.38684C109.111 7.14632 106.698 5.45023 103.562 4.33521C100.327 3.18354 97.0972 2.94273 94.951 2.9375C92.0351 2.9375 89.3444 3.74367 87.6064 4.4242C85.5177 5.2356 83.6803 6.29828 82.6909 7.26149L83.6698 8.27182C84.6854 7.28243 86.6328 6.31398 88.1195 5.73815C89.7475 5.10473 92.255 4.34568 94.9667 4.34568C96.9925 4.34568 100.044 4.57601 103.096 5.65963C105.96 6.67519 108.143 8.209 109.588 10.2087C110.472 11.4389 110.938 12.9204 110.928 14.4908C110.917 16.0246 110.467 17.5585 109.624 18.9143C108.97 19.9717 108.028 20.9559 106.913 21.762C105.824 22.5473 104.609 23.1388 103.405 23.4634C101.762 23.9083 100.003 24.1334 98.1861 24.1334C94.8567 24.1334 91.7315 23.4058 89.3968 22.0866C88.2974 21.4637 87.4389 20.7465 86.8474 19.956C85.9627 18.7782 85.7219 17.281 86.3187 15.9042C87.0306 14.2605 89.2031 14.0982 89.8365 15.9199C89.9203 16.1555 89.9569 16.4068 90.0878 16.6162C90.3495 17.0402 90.9986 17.2287 91.4122 16.925C91.8572 16.6005 91.8205 15.8571 91.7734 15.3808C91.5692 13.1769 92.0508 12.8 92.0508 12.8C93.1502 11.7321 93.8412 13.5904 93.8412 13.5904C93.8412 13.5904 94.5269 16.2759 96.0084 16.1032C97.7516 15.899 96.7832 13.826 96.2597 12.9151C95.9822 12.4335 95.375 11.7059 95.7414 11.1301C95.9351 10.8264 96.4638 10.6851 96.8041 10.7688L96.8093 10.7741Z"/>
<path style="transform: translate(-78px, 5px);" d="M115.362 14.6529C115.304 11.2083 113.749 7.88943 110.985 5.30864C109.059 3.50785 106.64 2.13632 103.803 1.23069C100.746 0.251771 97.2961 -0.146078 93.5584 0.0476114C88.9779 0.28318 84.6382 1.96357 81 4.90032L81.8847 5.99441C85.2873 3.24611 89.3496 1.67565 93.6317 1.45579C97.2019 1.27257 100.479 1.64948 103.379 2.57081C106.017 3.41362 108.258 4.68046 110.033 6.33991C112.509 8.65372 113.901 11.6062 113.964 14.6581C113.781 18.0817 112.451 20.898 110.017 23.0391C108.368 24.4892 106.19 25.6147 103.725 26.29C101.583 26.8763 99.2487 27.1118 97.1548 26.9495H97.1286H97.1024C94.8985 26.9391 92.4643 26.4156 90.2552 25.4681C87.7844 24.4106 85.8108 22.9239 84.5388 21.1598C83.6645 19.9453 83.2196 18.4272 83.2615 16.7573C83.2981 15.1711 83.7849 13.5483 84.6278 12.1925C87.7634 7.14608 94.8724 6.46555 100.16 7.66956C102.704 8.25063 105.614 9.5227 107.101 11.7842C107.855 12.9254 108.158 14.433 107.614 15.6894C107.478 16.0087 107.279 16.3071 107.002 16.5165C106.29 17.0452 105.169 16.7625 104.667 16.0296C104.416 15.6632 104.295 15.2182 104.049 14.8466C103.803 14.4749 103.348 14.1713 102.929 14.3178C102.348 14.522 102.327 15.3177 102.369 15.9302C102.405 16.4798 102.4 17.0347 102.358 17.5896C102.322 18.0869 102.175 18.6785 101.704 18.846C101.138 19.0449 100.599 18.4743 100.353 17.9299C100.065 17.2965 99.9135 16.595 99.5105 16.0296C99.1074 15.4643 98.3326 15.0664 97.7149 15.3857C97.0448 15.7312 96.9768 16.6997 97.2647 17.3959C97.5526 18.0922 98.0866 18.668 98.364 19.3747C98.4478 19.5841 98.5054 19.8144 98.4478 20.0291C98.3588 20.3746 97.9923 20.5997 97.6311 20.6154C97.2699 20.6311 96.9297 20.4793 96.6208 20.2908C96.0764 19.9558 95.6 19.5003 95.2493 18.9664C94.9404 18.5005 94.6525 17.9194 94.1081 17.8042C93.4485 17.6681 92.8674 18.3539 92.7889 19.0292C92.6894 19.8563 93.0978 20.6834 93.705 21.2488C94.3122 21.8141 95.0975 22.1544 95.8932 22.3952C99.0079 23.3427 102.515 22.8821 105.285 21.165C106.755 20.2542 108.028 18.9873 108.771 17.4273C109.514 15.8673 109.697 14.009 109.085 12.3914C108.556 10.9832 107.473 9.84203 106.269 8.94163C104.19 7.39212 101.693 6.45508 99.1335 6.06246C96.2544 5.62273 93.1501 5.75884 90.3442 6.5493C88.9046 6.95239 87.5959 7.55963 86.4495 8.34486C85.1984 9.20338 84.1828 10.2503 83.429 11.4596C82.4553 13.0248 81.8952 14.8989 81.8533 16.7311C81.8062 18.7046 82.3401 20.5264 83.3976 21.9869C84.8162 23.9552 86.9991 25.6094 89.7003 26.7663C92.0717 27.7819 94.6892 28.3472 97.071 28.3577C97.5212 28.3891 97.9871 28.4101 98.453 28.4101C100.306 28.4101 102.264 28.1483 104.091 27.651C106.761 26.9234 109.132 25.6932 110.943 24.1018C112.236 22.9658 113.262 21.6362 114.001 20.1495C114.807 18.5214 115.267 16.6945 115.372 14.7104V14.6843V14.6581L115.362 14.6529Z"/>
</svg>

