<svg width="81" height="46" viewBox="0 0 81 46" fill="none" xmlns="http://www.w3.org/2000/svg">
<g id="ADM_Logo 1">
<path id="Vector" d="M40.2933 3.96545L30.6851 13.498H49.9044L40.2933 3.96545Z" fill="#F1F1F1"/>
<path id="Vector_2" d="M30.685 13.4979L21.074 23.0332H40.2933L30.685 13.4979Z" fill="#F1F1F1"/>
<path id="Vector_3" d="M49.9045 13.4979L40.2935 23.0332H59.5128L49.9045 13.4979Z" fill="#F1F1F1"/>
<path id="Vector_4" d="M21.0741 23.0332L11.4658 32.5657H30.6852L21.0741 23.0332Z" fill="#F1F1F1"/>
<path id="Vector_5" d="M40.2933 23.0332L30.6851 32.5657H49.9044L40.2933 23.0332Z" fill="#F1F1F1"/>
<path id="Vector_6" d="M59.5127 23.0332L49.9016 32.5657H69.121L59.5127 23.0332Z" fill="#F1F1F1"/>
<path id="Vector_7" d="M30.685 32.5658L21.074 42.1011H40.2933L30.685 32.5658Z" fill="#F1F1F1"/>
<path id="Vector_8" d="M11.4658 32.5658L1.85474 42.1011H21.0741L11.4658 32.5658Z" fill="#F1F1F1"/>
<path id="Vector_9" d="M49.9045 32.5658L40.2935 42.1011H59.5128L49.9045 32.5658Z" fill="#F1F1F1"/>
<path id="Vector_10" d="M59.5127 42.1011H78.732L69.121 32.5658L59.5127 42.1011Z" fill="#F1F1F1"/>
</g>
</svg>
