<?xml-stylesheet type="text/css" href="./css/style.css" ?>
<svg width="80" height="80" viewBox="0 0 40 40" xmlns="http://www.w3.org/2000/svg" fill="white">
<mask id="mask0_711_4745" style="mask-type:luminance" maskUnits="userSpaceOnUse" x="103" y="0" width="24" height="30">
<path d="M125.876 6.49685C125.341 5.23006 124.574 4.09263 123.598 3.11557C122.622 2.13851 121.485 1.37157 120.219 0.83596C118.908 0.281354 117.516 0 116.08 0C113.388 0 110.82 1.00863 108.849 2.84008C106.889 4.66036 105.694 7.12633 105.483 9.78369C105.355 10.6222 105.374 11.3265 105.875 12.0222L105.719 12.7146L103.744 14.8894C103.659 14.9646 102.915 15.6416 103.008 16.3213C103.054 16.6608 103.294 16.9343 103.72 17.1349C104.041 17.2864 104.374 17.4129 104.616 17.5054C104.66 17.5222 104.701 17.5378 104.738 17.5521C104.722 17.6879 104.691 17.9519 104.643 18.3302C104.617 18.5356 104.668 18.7166 104.795 18.868C104.884 18.9751 105.004 19.0555 105.13 19.1162C105.055 19.1438 104.99 19.179 104.945 19.224C104.892 19.2765 104.864 19.3411 104.864 19.4104C104.864 19.7688 105.032 20.3726 105.195 20.9566C105.323 21.4164 105.456 21.8917 105.447 22.07C105.437 22.2767 105.313 22.6936 105.194 23.097C105.046 23.5957 104.918 24.0266 104.933 24.2451C104.94 24.3429 104.955 24.5463 106.144 25.3118C106.706 25.6736 107.273 25.9941 107.278 25.9975L107.346 26.0357L110.546 24.2685L110.195 26.8217C109.903 27.0955 109.07 28.5266 108.911 29.8219L108.891 29.9786H122.899C122.899 29.9786 123.503 29.7657 123.534 29.6581C124.967 24.6854 123.371 18.3794 123.371 18.3794C124.407 17.4026 125.224 16.2506 125.8 14.9537C126.405 13.5919 126.712 12.1399 126.712 10.6375C126.712 9.13521 126.431 7.80834 125.876 6.49685Z" fill="white"/>
</mask>
<g mask="url(#mask0_711_4745)" style="transform: translate(-95px, 5px);">
<path d="M125.792 23.8582C125.767 21.5694 125.498 19.3059 124.793 17.1289C123.775 13.9887 121.594 12.0142 118.38 11.3193C113.74 10.316 109.319 13.1673 108.21 17.7908C107.865 19.2274 107.962 20.6557 108.338 22.079C108.725 23.5444 108.691 25.0171 108.316 26.4829C108.286 26.5999 108.264 26.7284 108.117 26.7743C107.909 26.8388 107.752 26.6731 107.81 26.4309C107.916 25.9771 108.008 25.522 108.056 25.0571C108.163 24.0158 108.066 22.9932 107.799 21.984C106.472 16.9484 109.653 11.8323 114.754 10.798C119.407 9.85446 124.028 12.611 125.334 17.1199C125.795 18.7125 126.074 20.34 126.215 21.9932C126.295 22.9331 126.313 23.873 126.3 24.8148C126.296 25.0867 126.215 25.2124 126.037 25.1929C125.792 25.166 125.788 24.9816 125.791 24.7919C125.796 24.4807 125.793 24.1694 125.793 23.8585L125.792 23.8582Z"/>
<path d="M125.041 24.3236C125.053 25.2772 124.977 26.3082 124.854 27.3367C124.832 27.5169 124.76 27.6376 124.57 27.6359C124.405 27.6345 124.32 27.4811 124.347 27.2696C124.568 25.5343 124.59 23.7959 124.439 22.0532C124.301 20.4777 124.076 18.9103 123.561 17.4178C122.573 14.5567 120.522 12.8731 117.541 12.4464C113.748 11.9033 110.239 14.4173 109.418 18.1727C109.171 19.3009 109.215 20.4271 109.512 21.5436C110.079 23.6743 109.974 25.7734 109.21 27.8404C109.196 27.8767 109.182 27.9128 109.167 27.9486C109.102 28.1036 108.999 28.2006 108.824 28.1288C108.656 28.06 108.628 27.9307 108.693 27.765C108.87 27.3171 109.011 26.8575 109.118 26.3878C109.482 24.7947 109.429 23.2114 109.017 21.6339C107.888 17.3222 110.603 12.9513 114.969 12.0449C118.445 11.3235 121.948 12.9728 123.57 16.0906C124.026 16.9685 124.263 17.9159 124.47 18.8726C124.853 20.6412 125.054 22.4296 125.041 24.3234V24.3236Z" />
<path d="M123.78 24.2418C123.79 25.9274 123.597 27.5918 123.255 29.2405C123.225 29.3816 123.179 29.5154 122.997 29.5218C122.794 29.5291 122.699 29.3858 122.755 29.1231C122.85 28.6828 122.928 28.2402 122.999 27.7954C123.262 26.1448 123.324 24.4857 123.229 22.8182C123.139 21.2461 122.884 19.7018 122.479 18.1811C121.821 15.7101 119.82 13.9739 117.286 13.6763C114.226 13.317 111.387 15.3128 110.682 18.3121C110.426 19.4004 110.542 20.4626 110.805 21.5369C111.433 24.1018 111.17 26.5937 110.091 29.0013C110.051 29.0921 110.02 29.1972 109.911 29.2324C109.81 29.2648 109.711 29.2623 109.63 29.1782C109.527 29.0695 109.554 28.9536 109.609 28.8334C109.892 28.2185 110.122 27.5848 110.287 26.9282C110.764 25.0409 110.723 23.1605 110.232 21.2807C109.312 17.7547 111.523 14.1379 115.068 13.3042C118.489 12.4998 122.127 14.5198 123.023 18.2219C123.503 20.202 123.79 22.2024 123.779 24.2423L123.78 24.2418Z"/>
<path d="M116.594 9.35158C121.341 9.34208 125.469 12.5515 126.668 17.187C127.065 18.7232 127.349 20.2794 127.469 21.8633C127.476 21.9555 127.493 22.0514 127.436 22.1352C127.376 22.2215 127.289 22.2475 127.19 22.233C127.065 22.2148 126.998 22.1355 126.984 22.0142C126.94 21.6283 126.909 21.2408 126.856 20.8561C126.613 19.1009 126.363 17.3357 125.615 15.7146C124.138 12.5141 121.632 10.5748 118.155 10.0001C112.939 9.13756 108.006 12.5457 106.934 17.6944C106.615 19.2272 106.678 20.7522 107.086 22.2645C107.282 22.989 107.364 23.7286 107.341 24.4793C107.336 24.6478 107.3 24.7978 107.095 24.8101C106.939 24.8194 106.824 24.7367 106.835 24.5788C106.92 23.44 106.541 22.3696 106.363 21.2693C105.981 18.912 106.381 16.681 107.569 14.6171C109.206 11.7717 111.68 10.0875 114.9 9.49687C115.459 9.39433 116.026 9.35857 116.594 9.35186L116.594 9.35158Z" />
<path d="M122.519 23.9928C122.518 26.3817 122.211 28.4802 121.623 30.5394C121.608 30.5916 121.595 30.6447 121.576 30.6956C121.52 30.8504 121.409 30.9244 121.248 30.8741C121.086 30.823 121.045 30.6975 121.092 30.5394C121.271 29.9367 121.422 29.3271 121.55 28.7116C121.948 26.7977 122.084 24.8662 121.968 22.9143C121.877 21.3735 121.647 19.8552 121.216 18.3744C120.565 16.1319 118.519 14.7313 116.196 14.9026C113.902 15.0716 112.035 16.9288 111.813 19.2302C111.742 19.9689 111.911 20.6632 112.07 21.3684C112.739 24.3449 112.389 27.2014 111.042 29.937C111.032 29.958 111.022 29.9789 111.011 29.9999C110.933 30.1653 110.804 30.2491 110.636 30.1594C110.476 30.0745 110.484 29.9253 110.56 29.7744C110.826 29.2472 111.055 28.704 111.244 28.145C111.798 26.5102 111.988 24.8332 111.84 23.1138C111.769 22.2899 111.569 21.493 111.392 20.6898C110.77 17.8692 112.791 14.9604 115.639 14.4665C118.314 14.0027 120.952 15.6039 121.694 18.1855C122.076 19.5166 122.312 20.877 122.428 22.2583C122.483 22.9177 122.524 23.5771 122.519 23.9928H122.519Z" />
<path d="M120.747 24.608C120.746 22.3586 120.496 20.5171 120.003 18.7074C119.623 17.311 118.223 15.9905 116.254 16.1668C114.658 16.3096 113.36 17.5102 113.098 19.1296C113.016 19.6353 113.063 20.1348 113.191 20.6313C114.094 24.1459 113.706 27.5157 112.051 30.7428C111.974 30.8931 111.887 31.0127 111.695 30.9652C111.525 30.9232 111.474 30.7503 111.579 30.5494C111.942 29.861 112.244 29.1477 112.488 28.4084C113.097 26.5638 113.275 24.6745 113.08 22.7472C112.997 21.9266 112.768 21.1329 112.614 20.3251C112.223 18.262 113.646 16.1892 115.71 15.7382C117.802 15.2811 120.066 16.518 120.612 18.9767C121.026 20.8454 121.293 22.7226 121.252 24.6371C121.201 27.0173 120.775 29.3293 119.954 31.5667C119.895 31.7276 119.803 31.8285 119.626 31.7723C119.438 31.7128 119.411 31.5782 119.476 31.4005C119.934 30.1432 120.273 28.8546 120.483 27.5325C120.655 26.44 120.755 25.3414 120.747 24.6077V24.608Z"/>
<path d="M119.994 24.2384C119.979 26.9186 119.465 29.4983 118.442 31.9766C118.424 32.0196 118.405 32.0621 118.386 32.1048C118.314 32.2688 118.185 32.3286 118.027 32.2571C117.869 32.1859 117.866 32.045 117.926 31.8984C117.964 31.805 118 31.7106 118.038 31.6173C118.739 29.9035 119.183 28.1229 119.377 26.2839C119.638 23.8221 119.433 21.3941 118.775 19.0078C118.477 17.931 117.321 17.2339 116.209 17.4342C115.053 17.6426 114.231 18.6831 114.334 19.8242C114.386 20.4059 114.588 20.958 114.689 21.5316C114.95 23.0135 114.995 24.4979 114.823 25.991C114.608 27.8627 114.054 29.6291 113.183 31.2974C113.175 31.3111 113.169 31.3253 113.162 31.339C113.022 31.6033 112.904 31.6746 112.745 31.591C112.585 31.5072 112.574 31.3653 112.712 31.1054C113.587 29.4542 114.129 27.697 114.336 25.8424C114.537 24.0406 114.41 22.2563 113.939 20.5028C113.482 18.8007 114.441 17.2579 116.171 16.9329C117.513 16.6809 118.919 17.5803 119.286 18.9404C119.754 20.6744 119.987 22.4416 119.994 24.2384H119.994Z"/>
<path d="M116.606 8.09598C121.931 8.10353 126.507 11.6477 127.878 16.8308C128.013 17.3404 128.121 17.857 128.24 18.3706C128.251 18.4158 128.255 18.4625 128.261 18.5089C128.28 18.6684 128.232 18.7927 128.059 18.8198C127.889 18.8464 127.799 18.7452 127.763 18.5899C127.662 18.1437 127.572 17.6947 127.461 17.251C126.504 13.4364 124.202 10.7874 120.551 9.33316C118.96 8.69948 117.295 8.48323 115.59 8.64668C110.84 9.10238 107.001 12.3822 105.809 16.9479C105.799 16.9853 105.791 17.0233 105.782 17.061C105.742 17.2239 105.653 17.3357 105.471 17.2946C105.271 17.2496 105.249 17.0948 105.294 16.9283C105.374 16.6291 105.448 16.3265 105.553 16.0356C107.037 11.9397 109.904 9.38652 114.132 8.36504C114.943 8.16919 115.772 8.10409 116.606 8.0957L116.606 8.09598Z"/>
<path d="M118.73 24.1401C118.712 27.0056 118.134 29.6557 116.971 32.1759C116.948 32.2253 116.929 32.2765 116.903 32.324C116.827 32.4637 116.702 32.5028 116.566 32.4427C116.425 32.3796 116.391 32.2496 116.45 32.1083C116.53 31.9146 116.62 31.7255 116.704 31.5333C117.45 29.8113 117.92 28.0142 118.119 26.1498C118.359 23.9079 118.173 21.6951 117.606 19.5141C117.467 18.9802 117.121 18.6821 116.632 18.6667C116.166 18.6522 115.78 18.9215 115.639 19.3618C115.575 19.5596 115.578 19.7611 115.632 19.9597C116.101 21.7015 116.279 23.4749 116.163 25.2728C116.012 27.6055 115.386 29.8094 114.304 31.8828C114.217 32.0499 114.1 32.1563 113.916 32.0588C113.724 31.9566 113.775 31.7945 113.858 31.6361C114.632 30.1606 115.166 28.6021 115.45 26.9609C115.715 25.4348 115.765 23.9018 115.574 22.3612C115.478 21.5889 115.33 20.829 115.139 20.0754C114.924 19.2249 115.392 18.4186 116.211 18.209C117.047 17.995 117.85 18.4739 118.079 19.3236C118.511 20.9309 118.716 22.5685 118.73 24.1404L118.73 24.1401Z"/>
<path d="M116.287 7.32863C112.014 7.50828 108.418 9.43613 105.954 13.3647C105.858 13.5173 105.76 13.638 105.564 13.5419C105.403 13.4631 105.387 13.3164 105.519 13.1035C107.512 9.87758 110.358 7.83909 114.076 7.10511C117.952 6.33984 121.478 7.21491 124.608 9.62109C126.337 10.9502 127.614 12.6453 128.472 14.6531C128.5 14.717 128.529 14.7816 128.545 14.8489C128.576 14.9892 128.524 15.0931 128.388 15.1476C128.255 15.2007 128.153 15.1409 128.092 15.0328C128.012 14.8911 127.958 14.736 127.888 14.5888C126.099 10.8393 123.165 8.52892 119.125 7.60802C118.296 7.41887 117.452 7.35685 116.287 7.32779L116.287 7.32863Z"/>
<path d="M116.404 6.07809C112.624 6.17588 109.235 7.5983 106.506 10.525C106.485 10.5476 106.463 10.57 106.443 10.5937C106.325 10.7329 106.183 10.8214 106.025 10.6764C105.867 10.532 105.946 10.3889 106.069 10.2531C108.034 8.09172 110.442 6.67824 113.274 5.9803C114.674 5.63525 116.098 5.51259 117.531 5.61513C120.681 5.84004 123.469 6.9772 125.876 9.03105C126.774 9.79744 127.558 10.668 128.235 11.6356C128.279 11.699 128.322 11.7644 128.358 11.8326C128.424 11.9572 128.379 12.0603 128.276 12.1388C128.176 12.2151 128.068 12.2059 127.978 12.1237C127.916 12.067 127.868 11.993 127.819 11.9237C125.623 8.87263 122.68 6.99815 118.987 6.30077C118.198 6.15185 117.401 6.09988 116.404 6.07837L116.404 6.07809Z"/>
<path d="M127.652 9.58026C127.516 9.5864 127.447 9.48303 127.367 9.40088C125.578 7.55658 123.454 6.25598 121.001 5.49657C119.14 4.91989 117.236 4.71901 115.294 4.89586C112.273 5.17079 109.576 6.24927 107.204 8.14275C107.174 8.16706 107.143 8.19137 107.111 8.2126C106.975 8.30229 106.845 8.30201 106.742 8.16566C106.644 8.0349 106.685 7.90806 106.801 7.81697C107.113 7.57278 107.425 7.32635 107.75 7.10032C109.653 5.77737 111.75 4.90508 114.037 4.54494C118.411 3.85622 122.39 4.83971 125.955 7.47639C126.62 7.96785 127.229 8.52162 127.8 9.11869C127.885 9.20754 127.946 9.30226 127.89 9.43134C127.845 9.53527 127.767 9.58696 127.652 9.58054V9.58026Z"/>
<path d="M116.615 3.07031C120.472 3.10859 123.928 4.3033 126.977 6.67092C127.084 6.75334 127.197 6.83129 127.17 6.98887C127.132 7.20764 126.903 7.25793 126.694 7.09141C126.225 6.7187 125.736 6.37532 125.228 6.05764C123.197 4.78694 120.994 3.9845 118.617 3.70147C114.907 3.25947 111.437 3.99847 108.216 5.8995C108.176 5.92325 108.137 5.94923 108.097 5.97326C107.955 6.05876 107.82 6.04563 107.732 5.90341C107.638 5.74946 107.698 5.62345 107.848 5.53265C108.333 5.239 108.829 4.96407 109.341 4.72072C111.08 3.8951 112.905 3.37234 114.821 3.1681C115.417 3.10468 116.014 3.07422 116.615 3.07059L116.615 3.07031Z"/>
<path d="M116.632 1.81271C119.944 1.83451 123.025 2.68639 125.872 4.38346C125.898 4.39938 125.924 4.41699 125.951 4.43151C126.108 4.51477 126.168 4.64358 126.077 4.79808C125.982 4.95818 125.833 4.93946 125.689 4.85871C125.527 4.76735 125.368 4.67124 125.205 4.57959C123.285 3.49469 121.232 2.78893 119.05 2.48802C115.764 2.03539 112.595 2.47936 109.549 3.79477C109.499 3.81628 109.45 3.83863 109.401 3.86322C109.24 3.9448 109.089 3.94201 109.007 3.76403C108.921 3.57963 109.037 3.47569 109.196 3.40389C110.11 2.99066 111.053 2.65901 112.023 2.40616C113.533 2.0122 115.068 1.80489 116.632 1.81271Z"/>
<path d="M116.15 0.560043C119.122 0.526795 121.786 1.06547 124.334 2.17804C124.508 2.25431 124.677 2.3278 124.599 2.56249C124.543 2.7332 124.388 2.75136 124.12 2.63458C123.608 2.41106 123.087 2.21185 122.558 2.03359C120.309 1.27642 117.998 0.968803 115.632 1.08587C114.131 1.16019 112.658 1.41556 111.218 1.85422C111.036 1.90954 110.832 2.01236 110.717 1.75531C110.638 1.57845 110.747 1.46501 111.067 1.36946C112.789 0.856485 114.547 0.58491 116.15 0.560602L116.15 0.560043Z" />
<path d="M117.463 24.1157C117.448 27.0027 116.83 29.6232 115.61 32.1017C115.599 32.1227 115.586 32.1422 115.577 32.1635C115.506 32.337 115.388 32.4487 115.199 32.3596C115.006 32.2685 115.036 32.1104 115.12 31.945C115.404 31.384 115.656 30.8078 115.873 30.2177C116.681 28.0108 117.051 25.7362 116.929 23.3831C116.866 22.1764 116.684 20.9909 116.377 19.8233C116.334 19.6607 116.325 19.5062 116.517 19.4352C116.687 19.3723 116.806 19.4645 116.869 19.7023C117.267 21.1884 117.452 22.7028 117.463 24.1157Z"/>
<path d="M116.602 -0.703125C118.396 -0.694743 120.163 -0.472342 121.896 -0.00211461C121.926 0.00598794 121.958 0.00962012 121.987 0.0191197C122.142 0.0694114 122.261 0.155466 122.21 0.339031C122.161 0.519522 122.014 0.545227 121.855 0.508067C121.523 0.430673 121.193 0.341545 120.861 0.267225C119.036 -0.139579 117.191 -0.270337 115.326 -0.150755C114.76 -0.114433 114.197 -0.0535239 113.636 0.0280604C113.476 0.0512505 113.351 -0.000158835 113.32 -0.167798C113.288 -0.345495 113.381 -0.441049 113.56 -0.468989C114.568 -0.626849 115.582 -0.695861 116.602 -0.703125Z"/>
</g>
</svg>

