
<?xml-stylesheet href="../../css/style.css" type="text/css"?>
<svg width="80" height="80" viewBox="0 0 40 40" xmlns="http://www.w3.org/2000/svg" fill="white">
<path style="transform:translate(-57px, 5px)" id="mypath" d="M70.9654 20.6316C67.3612 20.6002 64.147 20.0908 60.9991 19.1738C60.3047 18.9701 59.6416 19.1542 58.9668 19.1111C58.3622 19.072 58.0345 18.8603 58.0033 18.3862C57.9643 17.8337 58.2724 17.5241 58.9005 17.5084C59.9732 17.4849 61.042 17.4222 62.1069 17.2655C66.8112 16.5719 70.9264 14.6321 74.4098 11.3718C76.5318 9.38505 78.1779 7.05737 79.3208 4.3731C79.5705 3.78138 80.1634 3.47964 80.8538 3.57369C81.4935 3.6599 82.0942 3.86759 82.6481 4.19284C82.9641 4.37701 83.1123 4.30256 83.284 3.99691C83.8379 3.01724 84.3684 2.02974 84.8131 0.99522C85.129 0.254595 85.7219 -0.0784906 86.5216 0.015557C87.6138 0.140954 88.5812 0.611192 89.5056 1.1598C91.7915 2.51566 93.8355 4.15365 95.3724 6.36377C95.5947 6.6851 95.778 7.03386 95.8872 7.41005C96.0589 8.0096 96.0433 8.58173 95.6025 9.07939C92.6652 12.4024 89.2482 15.0984 85.2928 17.093C81.5013 19.0053 77.4875 20.1417 73.2591 20.5062C72.3931 20.5806 71.5193 20.5963 70.9693 20.6237L70.9654 20.6316ZM64.8998 18.3666C65.048 18.4254 65.0987 18.4606 65.1533 18.4685C67.3105 18.7271 69.4637 18.7349 71.6208 18.4097C77.0389 17.5868 81.6886 15.2199 85.6088 11.3875C85.8038 11.1994 85.8624 11.1171 85.5581 10.9839C84.0407 10.3255 82.7301 9.3537 81.513 8.24472C80.9786 7.75489 80.4949 7.21803 80.0269 6.65767C76.6488 12.712 71.5857 16.5131 64.8998 18.3744V18.3666ZM93.2582 9.25965C90.1298 7.93123 87.5943 5.92488 85.5074 3.29939C85.2031 3.83232 84.9145 4.38877 84.579 4.90995C84.4074 5.17642 84.4581 5.29006 84.696 5.4664C85.5581 6.08555 86.3656 6.77523 87.0755 7.57071C87.6177 8.17419 88.1404 8.79725 88.3861 9.59666C88.5539 10.1413 88.4954 10.639 88.1014 11.0779C85.9014 13.5506 83.3737 15.6 80.4559 17.1557C80.1946 17.2968 79.9332 17.4261 79.668 17.5633C84.9184 15.9919 89.4276 13.2097 93.2504 9.25965H93.2582ZM94.3309 7.93123C93.6443 5.76813 88.2496 1.64963 86.3812 1.71233C88.4212 4.62389 91.0035 6.66551 94.3309 7.93123ZM86.5645 9.63976C85.7531 8.05663 82.2035 5.32533 81.0605 5.37627C82.5506 7.30033 84.3567 8.73063 86.5645 9.63976Z"/>
<path style="transform:translate(-57px, 5px)" d="M72.5219 22.6341C76.8361 22.6341 81.1503 22.6341 85.4684 22.6341C86.2564 22.6341 86.7596 23.0377 86.8142 23.7C86.8688 24.3583 86.5021 24.856 85.8507 24.9853C85.683 25.0167 85.5113 25.0206 85.3397 25.0206C76.7581 25.0206 68.1726 25.0206 59.5909 25.0206C59.4349 25.0206 59.2789 25.0206 59.1267 24.9931C58.5026 24.8795 58.0813 24.3779 58.1047 23.7862C58.1282 23.1749 58.6079 22.6929 59.2516 22.638C59.392 22.6263 59.5324 22.638 59.6728 22.638C63.9559 22.638 68.2389 22.638 72.5258 22.638L72.5219 22.6341Z"/>
</svg>
