<?xml-stylesheet type="text/css" href="./css/style.css" ?>
<svg width="80" height="80" viewBox="0 0 40 40" xmlns="http://www.w3.org/2000/svg" fill="white">
<mask id="mask0_711_4729" style="mask-type:luminance" maskUnits="userSpaceOnUse" x="123" y="0" width="24" height="30">
<path d="M145.876 6.49685C145.341 5.23006 144.574 4.09263 143.598 3.11557C142.622 2.13851 141.485 1.37157 140.219 0.83596C138.908 0.281354 137.516 0 136.08 0C133.388 0 130.82 1.00863 128.849 2.84008C126.889 4.66036 125.694 7.12633 125.483 9.78369C125.355 10.6222 125.374 11.3265 125.875 12.0222L125.719 12.7146L123.744 14.8894C123.659 14.9646 122.915 15.6416 123.008 16.3213C123.054 16.6608 123.294 16.9343 123.72 17.1349C124.041 17.2864 124.374 17.4129 124.616 17.5054C124.66 17.5222 124.701 17.5378 124.738 17.5521C124.722 17.6879 124.691 17.9519 124.643 18.3302C124.617 18.5356 124.668 18.7166 124.795 18.868C124.884 18.9751 125.004 19.0555 125.13 19.1162C125.055 19.1438 124.99 19.179 124.945 19.224C124.892 19.2765 124.864 19.3411 124.864 19.4104C124.864 19.7688 125.032 20.3726 125.195 20.9566C125.323 21.4164 125.456 21.8917 125.447 22.07C125.437 22.2767 125.313 22.6936 125.194 23.097C125.046 23.5957 124.918 24.0266 124.933 24.2451C124.94 24.3429 124.955 24.5463 126.144 25.3118C126.706 25.6736 127.273 25.9941 127.278 25.9975L127.346 26.0357L130.546 24.2685L130.195 26.8217C129.903 27.0955 129.07 28.5266 128.911 29.8219L128.891 29.9786H142.899C142.899 29.9786 143.503 29.7657 143.534 29.6581C144.967 24.6854 143.371 18.3794 143.371 18.3794C144.407 17.4026 145.224 16.2506 145.8 14.9537C146.405 13.5919 146.712 12.1399 146.712 10.6375C146.712 9.13521 146.431 7.80834 145.876 6.49685Z" fill="white"/>
</mask>
<g mask="url(#mask0_711_4729)" style="transform: translate(-118px, 5px);" >
<path d="M145.792 23.8582C145.767 21.5694 145.498 19.3059 144.793 17.1289C143.775 13.9887 141.594 12.0142 138.38 11.3193C133.74 10.316 129.319 13.1673 128.21 17.7908C127.865 19.2274 127.962 20.6557 128.338 22.079C128.725 23.5444 128.691 25.0171 128.316 26.4829C128.286 26.5999 128.264 26.7284 128.117 26.7743C127.909 26.8388 127.752 26.6731 127.81 26.4309C127.916 25.9771 128.008 25.522 128.056 25.0571C128.163 24.0158 128.066 22.9932 127.799 21.984C126.472 16.9484 129.653 11.8323 134.754 10.798C139.407 9.85446 144.028 12.611 145.334 17.1199C145.795 18.7125 146.074 20.34 146.215 21.9932C146.295 22.9331 146.313 23.873 146.3 24.8148C146.296 25.0867 146.215 25.2124 146.037 25.1929C145.792 25.166 145.788 24.9816 145.791 24.7919C145.796 24.4807 145.793 24.1694 145.793 23.8585L145.792 23.8582Z" />
<path d="M143.78 24.2418C143.79 25.9274 143.597 27.5918 143.255 29.2405C143.225 29.3816 143.179 29.5154 142.997 29.5218C142.794 29.5291 142.699 29.3858 142.755 29.1231C142.85 28.6828 142.928 28.2402 142.999 27.7954C143.262 26.1448 143.324 24.4857 143.229 22.8182C143.139 21.2461 142.884 19.7018 142.479 18.1811C141.821 15.7101 139.82 13.9739 137.286 13.6763C134.226 13.317 131.387 15.3128 130.682 18.3121C130.426 19.4004 130.542 20.4626 130.805 21.5369C131.433 24.1018 131.17 26.5937 130.091 29.0013C130.051 29.0921 130.02 29.1972 129.911 29.2324C129.81 29.2648 129.711 29.2623 129.63 29.1782C129.527 29.0695 129.554 28.9536 129.609 28.8334C129.892 28.2185 130.122 27.5848 130.287 26.9282C130.764 25.0409 130.723 23.1605 130.232 21.2807C129.312 17.7547 131.523 14.1379 135.068 13.3042C138.489 12.4998 142.127 14.5198 143.023 18.2219C143.503 20.202 143.79 22.2024 143.779 24.2423L143.78 24.2418Z"/>
<path d="M140.747 24.608C140.746 22.3586 140.496 20.5171 140.003 18.7074C139.623 17.311 138.223 15.9905 136.254 16.1668C134.658 16.3096 133.36 17.5102 133.098 19.1296C133.016 19.6353 133.063 20.1348 133.191 20.6313C134.094 24.1459 133.706 27.5157 132.051 30.7428C131.974 30.8931 131.887 31.0127 131.695 30.9652C131.525 30.9232 131.474 30.7503 131.579 30.5494C131.942 29.861 132.244 29.1477 132.488 28.4084C133.097 26.5638 133.275 24.6745 133.08 22.7472C132.997 21.9266 132.768 21.1329 132.614 20.3251C132.223 18.262 133.646 16.1892 135.71 15.7382C137.802 15.2811 140.066 16.518 140.612 18.9767C141.026 20.8454 141.293 22.7226 141.252 24.6371C141.201 27.0173 140.775 29.3293 139.954 31.5667C139.895 31.7276 139.803 31.8285 139.626 31.7723C139.438 31.7128 139.411 31.5782 139.476 31.4005C139.934 30.1432 140.273 28.8546 140.483 27.5325C140.655 26.44 140.755 25.3414 140.747 24.6077V24.608Z"/>
<path d="M136.606 8.09598C141.931 8.10353 146.507 11.6477 147.878 16.8308C148.013 17.3404 148.121 17.857 148.24 18.3706C148.251 18.4158 148.255 18.4625 148.261 18.5089C148.28 18.6684 148.232 18.7927 148.059 18.8198C147.889 18.8464 147.799 18.7452 147.763 18.5899C147.662 18.1437 147.572 17.6947 147.461 17.251C146.504 13.4364 144.202 10.7874 140.551 9.33316C138.96 8.69948 137.295 8.48323 135.59 8.64668C130.84 9.10238 127.001 12.3822 125.809 16.9479C125.799 16.9853 125.791 17.0233 125.782 17.061C125.742 17.2239 125.653 17.3357 125.471 17.2946C125.271 17.2496 125.249 17.0948 125.294 16.9283C125.374 16.6291 125.448 16.3265 125.553 16.0356C127.037 11.9397 129.904 9.38652 134.132 8.36504C134.943 8.16919 135.772 8.10409 136.606 8.0957L136.606 8.09598Z"/>
<path d="M138.73 24.1401C138.712 27.0056 138.134 29.6557 136.971 32.1759C136.948 32.2253 136.929 32.2765 136.903 32.324C136.827 32.4637 136.702 32.5028 136.566 32.4427C136.425 32.3796 136.391 32.2496 136.45 32.1083C136.53 31.9146 136.62 31.7255 136.704 31.5333C137.45 29.8113 137.92 28.0142 138.119 26.1498C138.359 23.9079 138.173 21.6951 137.606 19.5141C137.467 18.9802 137.121 18.6821 136.632 18.6667C136.166 18.6522 135.78 18.9215 135.639 19.3618C135.575 19.5596 135.578 19.7611 135.632 19.9597C136.101 21.7015 136.279 23.4749 136.163 25.2728C136.012 27.6055 135.386 29.8094 134.304 31.8828C134.217 32.0499 134.1 32.1563 133.916 32.0588C133.724 31.9566 133.775 31.7945 133.858 31.6361C134.632 30.1606 135.166 28.6021 135.45 26.9609C135.715 25.4348 135.765 23.9018 135.574 22.3612C135.478 21.5889 135.33 20.829 135.139 20.0754C134.924 19.2249 135.392 18.4186 136.211 18.209C137.047 17.995 137.85 18.4739 138.079 19.3236C138.511 20.9309 138.716 22.5685 138.73 24.1404L138.73 24.1401Z" />
<path d="M136.404 6.07809C132.624 6.17588 129.235 7.5983 126.506 10.525C126.485 10.5476 126.463 10.57 126.443 10.5937C126.325 10.7329 126.183 10.8214 126.025 10.6764C125.867 10.532 125.946 10.3889 126.069 10.2531C128.034 8.09172 130.442 6.67824 133.274 5.9803C134.674 5.63525 136.098 5.51259 137.531 5.61513C140.681 5.84004 143.469 6.9772 145.876 9.03105C146.774 9.79744 147.558 10.668 148.235 11.6356C148.279 11.699 148.322 11.7644 148.358 11.8326C148.424 11.9572 148.379 12.0603 148.276 12.1388C148.176 12.2151 148.068 12.2059 147.978 12.1237C147.916 12.067 147.868 11.993 147.819 11.9237C145.623 8.87263 142.68 6.99815 138.987 6.30077C138.198 6.15185 137.401 6.09988 136.404 6.07837L136.404 6.07809Z" />
<path d="M136.615 3.07031C140.472 3.10859 143.928 4.3033 146.977 6.67092C147.084 6.75334 147.197 6.83129 147.17 6.98887C147.132 7.20764 146.903 7.25793 146.694 7.09141C146.225 6.7187 145.736 6.37532 145.228 6.05764C143.197 4.78694 140.994 3.9845 138.617 3.70147C134.907 3.25947 131.437 3.99847 128.216 5.8995C128.176 5.92325 128.137 5.94923 128.097 5.97326C127.955 6.05876 127.82 6.04563 127.732 5.90341C127.638 5.74946 127.698 5.62345 127.848 5.53265C128.333 5.239 128.829 4.96407 129.341 4.72072C131.08 3.8951 132.905 3.37234 134.821 3.1681C135.417 3.10468 136.014 3.07422 136.615 3.07059L136.615 3.07031Z"/>
<path d="M136.15 0.560043C139.122 0.526795 141.786 1.06547 144.334 2.17804C144.508 2.25431 144.677 2.3278 144.599 2.56249C144.543 2.7332 144.388 2.75136 144.12 2.63458C143.608 2.41106 143.087 2.21185 142.558 2.03359C140.309 1.27642 137.998 0.968803 135.632 1.08587C134.131 1.16019 132.658 1.41556 131.218 1.85422C131.036 1.90954 130.832 2.01236 130.717 1.75531C130.638 1.57845 130.747 1.46501 131.067 1.36946C132.789 0.856485 134.547 0.58491 136.15 0.560602L136.15 0.560043Z" />
<path d="M136.602 -0.703125C138.396 -0.694743 140.163 -0.472342 141.896 -0.00211461C141.926 0.00598794 141.958 0.00962012 141.987 0.0191197C142.142 0.0694114 142.261 0.155466 142.21 0.339031C142.161 0.519522 142.014 0.545227 141.855 0.508067C141.523 0.430673 141.193 0.341545 140.861 0.267225C139.036 -0.139579 137.191 -0.270337 135.326 -0.150755C134.76 -0.114433 134.197 -0.0535239 133.636 0.0280604C133.476 0.0512505 133.351 -0.000158835 133.32 -0.167798C133.288 -0.345495 133.381 -0.441049 133.56 -0.468989C134.568 -0.626849 135.582 -0.695861 136.602 -0.703125Z"/>
</g>
</svg>

